<svg width="26" height="26" viewBox="0 0 26 26" fill="none" xmlns="http://www.w3.org/2000/svg">
<path fill-rule="evenodd" clip-rule="evenodd" d="M22.3685 2.91625C22.6454 2.74952 22.976 2.69648 23.2911 2.76826C23.6062 2.84004 23.8812 3.03106 24.0585 3.30125L25.296 5.18875C25.4577 5.43544 25.5269 5.73134 25.4914 6.02414C25.456 6.31694 25.3181 6.58777 25.1023 6.78875L25.0985 6.79375L25.081 6.81L25.0098 6.87625L24.7285 7.145C23.1723 8.6545 21.6632 10.2119 20.2035 11.815C17.4573 14.835 14.196 18.7875 12.001 22.6225C11.3885 23.6925 9.89227 23.9225 9.00477 22.9987L0.898519 14.5762C0.782351 14.4555 0.691644 14.3126 0.63179 14.1561C0.571936 13.9996 0.544157 13.8327 0.550104 13.6652C0.556051 13.4978 0.595603 13.3332 0.666408 13.1814C0.737214 13.0295 0.837827 12.8934 0.962269 12.7812L3.41227 10.5712C3.62757 10.3771 3.90365 10.2639 4.19324 10.2509C4.48284 10.2379 4.76794 10.326 4.99977 10.5L9.13602 13.6012C15.596 7.23 19.261 4.785 22.3685 2.91625Z" fill="#739273"/>
</svg>
