<svg width="58" height="58" viewBox="0 0 58 58" fill="none" xmlns="http://www.w3.org/2000/svg">
<g clip-path="url(#clip0_51_119)">
<path d="M35.3611 8.80046C31.3892 9.50082 28.2127 11.822 26.5541 15.0914C23.8773 12.5865 20.0985 11.4917 16.1266 12.192C12.9655 12.7531 10.156 14.5451 8.31456 17.175C6.47309 19.8049 5.75001 23.0579 6.30394 26.2202C8.67804 39.6844 30.5632 47.0626 31.4927 47.3627C31.7381 47.4438 31.9997 47.4627 32.2541 47.4178C32.5086 47.373 32.7479 47.2657 32.9507 47.1057C33.7215 46.5057 51.7634 32.0873 49.3893 18.6231C48.8282 15.462 47.0362 12.6525 44.4063 10.8111C41.7764 8.96961 38.5235 8.24653 35.3611 8.80046ZM31.6723 44.1182C27.7992 42.6909 11.2024 36.0046 9.38147 25.6776C8.97092 23.3314 9.50757 20.9181 10.8737 18.967C12.2399 17.0159 14.3241 15.6862 16.6692 15.2696C20.4103 14.6099 23.9027 16.0487 25.7789 19.0181C25.9446 19.2799 26.1843 19.4865 26.4677 19.6117C26.7511 19.7369 27.0653 19.775 27.3704 19.7212C27.6756 19.6674 27.9578 19.5241 28.1813 19.3095C28.4048 19.0949 28.5594 18.8188 28.6256 18.5161C29.372 15.0784 32.1626 12.5376 35.9038 11.878C38.25 11.4674 40.6632 12.0041 42.6143 13.3703C44.5654 14.7364 45.8951 16.8206 46.3118 19.1657C48.13 29.4774 34.8195 41.4511 31.6723 44.1182Z" fill="#739273"/>
</g>
<defs>
<clipPath id="clip0_51_119">
<rect width="50" height="50" fill="white" transform="translate(0.0385742 8.68237) rotate(-10)"/>
</clipPath>
</defs>
</svg>
